<svg width="22" height="31" viewBox="0 0 22 31" fill="none" xmlns="http://www.w3.org/2000/svg">
<path d="M19.2148 3.51782C20.3192 3.51803 21.2148 4.41338 21.2148 5.51782V28.0364C21.2146 29.1406 20.3191 30.0362 19.2148 30.0364H2C0.895588 30.0364 0.000254555 29.1407 0 28.0364V5.51782C4.15669e-07 4.41325 0.895431 3.51782 2 3.51782H5.30371V4.18091C5.30374 5.27929 6.19457 6.17017 7.29297 6.17017H13.9219C15.0203 6.17017 15.9111 5.27929 15.9111 4.18091V3.51782H19.2148Z" fill="#FABB18"/>
<path d="M10.6071 0.866211C11.3391 0.866211 11.9329 1.45942 11.9332 2.19141H14.0846C14.3606 2.19141 14.5844 2.41545 14.5846 2.69141V4.34375C14.5845 4.61983 14.3607 4.84375 14.0846 4.84375H7.12952C6.85342 4.84375 6.62959 4.61983 6.62952 4.34375V2.69141C6.62973 2.41545 6.85351 2.19141 7.12952 2.19141H9.28186C9.2822 1.45951 9.87511 0.86635 10.6071 0.866211Z" fill="black"/>
<rect x="3.97778" y="12.7991" width="6.62952" height="2.65181" rx="1.3259" fill="black"/>
<rect x="3.97778" y="18.103" width="11.9331" height="2.65181" rx="1.3259" fill="black"/>
</svg>
