<svg width="37" height="44" viewBox="0 0 37 44" fill="none" xmlns="http://www.w3.org/2000/svg">
<path d="M9.98491 1.98954C10.0281 1.77067 10.027 1.54535 9.98149 1.32694C9.93601 1.10852 9.84715 0.901465 9.72017 0.718032C9.59318 0.534598 9.43067 0.378526 9.24225 0.259067C9.05383 0.139607 8.84334 0.0591913 8.62327 0.0225867C8.4032 -0.0140178 8.17801 -0.0060661 7.96107 0.0459702C7.74413 0.0980066 7.53984 0.193068 7.36032 0.325521C7.18079 0.457973 7.02969 0.62512 6.91596 0.817053C6.80223 1.00899 6.7282 1.2218 6.69824 1.44287L0.0315733 41.4429C-0.0116461 41.6617 -0.0104833 41.8871 0.0349922 42.1055C0.0804678 42.3239 0.169331 42.531 0.296313 42.7144C0.423296 42.8978 0.585813 43.0539 0.774232 43.1734C0.962651 43.2928 1.17314 43.3732 1.39321 43.4098C1.61328 43.4464 1.83847 43.4385 2.05541 43.3864C2.27235 43.3344 2.47664 43.2393 2.65616 43.1069C2.83569 42.9744 2.98679 42.8073 3.10052 42.6154C3.21425 42.4234 3.28828 42.2106 3.31824 41.9895L5.55157 28.5895C8.23824 28.9829 11.1416 29.1129 13.4282 30.7162C14.843 31.7328 16.479 32.3989 18.2016 32.6595C21.4216 33.1462 24.3016 31.3762 27.4816 31.8795L31.7782 32.5262C32.6449 32.6595 33.5449 31.9929 33.6749 31.1262L36.6216 11.3462L36.6349 11.3329C36.6786 10.8978 36.5561 10.4622 36.2922 10.1136C36.0282 9.7649 35.6422 9.5289 35.2116 9.45288L30.9149 8.80621C27.7049 8.32954 24.8182 10.0495 21.6382 9.57288C20.212 9.35629 18.8554 8.81205 17.6749 7.98287C15.2116 6.25954 12.2782 5.97287 9.38824 5.56621L9.98491 1.98954ZM8.01824 13.7829L9.11824 7.20954C11.1149 7.48287 13.2282 7.63954 15.0782 8.43954L14.0949 14.9895C12.1949 14.2129 10.0482 14.0629 8.01824 13.7829ZM5.82824 26.9495L6.92824 20.3695C8.99491 20.6562 11.1849 20.8029 13.1216 21.5962L14.1216 15.0095C16.3149 15.9095 17.9849 17.4529 20.4316 17.8129L21.4316 11.2129C23.8916 11.5829 25.9282 10.6229 28.2916 10.4329L27.2916 16.9862C24.9249 17.1862 22.8782 18.1862 20.4249 17.8195L19.4716 24.4129C17.0182 24.0462 15.3449 22.4962 13.1416 21.5995L12.1416 28.1862C10.1582 27.3895 7.93157 27.2495 5.82824 26.9495ZM19.4749 24.4162C21.9216 24.7829 23.9782 23.7762 26.3449 23.5795L27.2916 16.9862C29.4749 16.7862 31.7082 17.3562 33.8516 17.6829L32.9182 24.2695C30.7716 23.9462 28.5316 23.3729 26.3482 23.5795L25.3482 30.1662C22.9849 30.3262 20.8982 31.3662 18.4749 30.9995L19.4749 24.4162Z" fill="black"/>
</svg>
