<svg width="39" height="39" viewBox="0 0 39 39" fill="none" xmlns="http://www.w3.org/2000/svg">
<path d="M19.5001 34.125V30.875H30.8751V8.125H19.5001V4.875H30.8751C31.7688 4.875 32.5342 5.1935 33.1712 5.8305C33.8082 6.4675 34.1262 7.23233 34.1251 8.125V30.875C34.1251 31.7688 33.8071 32.5341 33.1712 33.1711C32.5353 33.8081 31.7699 34.1261 30.8751 34.125H19.5001ZM18.1595 18.5V18.1875L18.1594 17.875L18.1595 18.5Z" fill="#FABB18"/>
<path d="M3.216 20.224V17.472H11.952L13.904 17.696L9.872 13.664L11.696 11.84L18.736 18.88L11.696 25.888L9.872 24.064L13.904 20.032L11.952 20.224H3.216Z" fill="white"/>
</svg>
