<svg width="55" height="55" viewBox="0 0 55 55" fill="none" xmlns="http://www.w3.org/2000/svg">
<path d="M13.75 16.0417H25.2084C25.8162 16.0417 26.3991 16.2832 26.8288 16.713C27.2586 17.1427 27.5 17.7256 27.5 18.3334C27.5 18.9412 27.2586 19.5241 26.8288 19.9539C26.3991 20.3836 25.8162 20.6251 25.2084 20.6251H13.75C13.1423 20.6251 12.5594 20.3836 12.1296 19.9539C11.6998 19.5241 11.4584 18.9412 11.4584 18.3334C11.4584 17.7256 11.6998 17.1427 12.1296 16.713C12.5594 16.2832 13.1423 16.0417 13.75 16.0417ZM29.7917 34.3751H41.25C41.8578 34.3751 42.4407 34.6165 42.8705 35.0463C43.3003 35.4761 43.5417 36.059 43.5417 36.6667C43.5417 37.2745 43.3003 37.8574 42.8705 38.2872C42.4407 38.717 41.8578 38.9584 41.25 38.9584H29.7917C29.1839 38.9584 28.601 38.717 28.1713 38.2872C27.7415 37.8574 27.5 37.2745 27.5 36.6667C27.5 36.059 27.7415 35.4761 28.1713 35.0463C28.601 34.6165 29.1839 34.3751 29.7917 34.3751ZM13.75 25.2084H41.25C41.8578 25.2084 42.4407 25.4499 42.8705 25.8796C43.3003 26.3094 43.5417 26.8923 43.5417 27.5001C43.5417 28.1079 43.3003 28.6908 42.8705 29.1205C42.4407 29.5503 41.8578 29.7917 41.25 29.7917H13.75C13.1423 29.7917 12.5594 29.5503 12.1296 29.1205C11.6998 28.6908 11.4584 28.1079 11.4584 27.5001C11.4584 26.8923 11.6998 26.3094 12.1296 25.8796C12.5594 25.4499 13.1423 25.2084 13.75 25.2084Z" fill="black"/>
</svg>
