<svg width="57" height="74" viewBox="0 0 57 74" fill="none" xmlns="http://www.w3.org/2000/svg">
<path d="M28.5002 0.458344C23.9141 0.458344 19.5159 2.28014 16.2731 5.52296C13.0303 8.76577 11.2085 13.164 11.2085 17.75V24.6667H7.75016C5.91575 24.6667 4.15647 25.3954 2.85934 26.6925C1.56221 27.9896 0.833496 29.7489 0.833496 31.5833V66.1667C0.833496 68.0011 1.56221 69.7604 2.85934 71.0575C4.15647 72.3546 5.91575 73.0833 7.75016 73.0833H49.2502C51.0846 73.0833 52.8439 72.3546 54.141 71.0575C55.4381 69.7604 56.1668 68.0011 56.1668 66.1667V31.5833C56.1668 29.7489 55.4381 27.9896 54.141 26.6925C52.8439 25.3954 51.0846 24.6667 49.2502 24.6667H45.7918V17.75C45.7918 15.4792 45.3446 13.2307 44.4756 11.1328C43.6066 9.03485 42.3329 7.12863 40.7272 5.52296C39.1215 3.91728 37.2153 2.64358 35.1174 1.77459C33.0195 0.905606 30.7709 0.458344 28.5002 0.458344ZM28.5002 7.02918C34.4139 7.02918 39.221 11.8363 39.221 17.75V24.6667H17.7793V17.75C17.7793 11.8363 22.5864 7.02918 28.5002 7.02918ZM29.1572 33.3125C32.4081 33.3125 35.0018 34.0388 36.8693 35.4567C38.7368 36.9092 39.6706 38.8458 39.6706 41.2667C39.6706 42.7883 39.1518 44.1371 38.1489 45.4167C37.146 46.6617 35.8318 47.63 34.241 48.3563C33.3418 48.875 32.7539 49.3938 32.4427 49.9817C32.1314 50.6042 31.9585 51.365 31.9585 52.3333H25.0418C25.0418 50.6042 25.3877 49.4283 26.0447 48.5983C26.771 47.7683 27.9468 46.8 29.7452 45.6933C30.6443 45.2092 31.3706 44.5867 31.9585 43.8258C32.4427 43.0996 32.7193 42.235 32.7193 41.2667C32.7193 40.2292 32.4081 39.4683 31.7856 38.8804C31.1631 38.2579 30.2293 37.9813 29.1572 37.9813C28.2235 37.9813 27.4627 38.2233 26.771 38.7075C26.2177 39.1917 25.8718 39.9179 25.8718 40.8863H19.0589C18.886 38.5 19.8543 36.425 21.7564 35.18C23.6239 33.935 26.0793 33.3125 29.1572 33.3125ZM25.0418 55.7917H31.9585V62.7083H25.0418V55.7917Z" fill="#B3B3B3"/>
</svg>
