<svg width="15" height="22" viewBox="0 0 15 22" fill="none" xmlns="http://www.w3.org/2000/svg">
<path opacity="0.3" fill-rule="evenodd" clip-rule="evenodd" d="M3.70213 2.78535H2C0.895431 2.78535 0 3.68078 0 4.78535V19.296C0 20.4006 0.895431 21.296 2 21.296H12.8085C13.9131 21.296 14.8085 20.4006 14.8085 19.296V4.78535C14.8085 3.68079 13.9131 2.78535 12.8085 2.78535H11.1064V3.24811C11.1064 4.01485 10.4848 4.63641 9.71809 4.63641H5.09043C4.32369 4.63641 3.70213 4.01485 3.70213 3.24811V2.78535Z" fill="black"/>
<path fill-rule="evenodd" clip-rule="evenodd" d="M8.32978 1.85981C8.32978 1.85981 8.32978 1.85981 8.32978 1.85981C8.32978 1.34865 7.9154 0.934273 7.40424 0.934273C6.89309 0.934273 6.47871 1.34865 6.47871 1.85981C6.47871 1.85981 6.47871 1.85981 6.47871 1.85981H5.12764C4.8515 1.85981 4.62764 2.08367 4.62764 2.35981V3.21088C4.62764 3.48702 4.8515 3.71088 5.12764 3.71088H9.68084C9.95698 3.71088 10.1808 3.48702 10.1808 3.21088V2.35981C10.1808 2.08367 9.95698 1.85981 9.68084 1.85981H8.32978Z" fill="black"/>
<rect opacity="0.3" x="2.77658" y="9.26407" width="4.62767" height="1.85107" rx="0.925533" fill="black"/>
<rect opacity="0.3" x="2.77658" y="12.9662" width="8.3298" height="1.85107" rx="0.925533" fill="black"/>
</svg>
