<svg width="28" height="28" viewBox="0 0 28 28" fill="none" xmlns="http://www.w3.org/2000/svg">
<path d="M16.733 16.3414L17.9746 16.4717V26.5781L14.5451 22.916V17.0898L15.5412 17.5762L16.733 16.3414ZM11.267 16.3414L10.0247 16.4717V26.5781L13.4542 22.916V17.0898L12.4582 17.5762L11.267 16.3414ZM20.6722 10.0097L21.074 11.4082L19.8678 12.2215L19.7668 13.6746L18.3553 14.0259L17.7645 15.3556L16.3175 15.2027L15.3072 16.2466L14 15.608L12.6929 16.2466L11.6825 15.1993L10.2355 15.3521L9.6447 14.0225L8.23322 13.6746L8.13221 12.2235L6.92263 11.4075L7.32448 10.009L6.47168 8.83083L7.32721 7.65395L6.92263 6.25816L8.12948 5.44496L8.23048 3.99383L9.6447 3.64591L10.2355 2.31629L11.6825 2.46909L12.6929 1.42188L14 2.06046L15.3072 1.42188L16.3175 2.46909L17.7645 2.31629L18.3553 3.64591L19.7668 3.99727L19.8678 5.44835L21.074 6.26155L20.6722 7.66013L21.5284 8.83083L20.6722 10.0097ZM17.9808 8.83083C17.9808 8.04945 17.7491 7.28561 17.315 6.63592C16.8808 5.98622 16.2638 5.47985 15.5419 5.18083C14.82 4.8818 14.0257 4.80357 13.2593 4.95601C12.4929 5.10845 11.789 5.48472 11.2364 6.03724C10.6839 6.58976 10.3077 7.29371 10.1552 8.06008C10.0028 8.82645 10.081 9.62081 10.38 10.3427C10.6791 11.0646 11.1854 11.6816 11.8351 12.1157C12.4848 12.5499 13.2487 12.7816 14.03 12.7816C15.0773 12.7799 16.0813 12.3632 16.8218 11.6226C17.5624 10.8821 17.9791 9.87813 17.9808 8.83083ZM14.03 5.9716C13.4646 5.9716 12.9118 6.13929 12.4416 6.45345C11.9714 6.76762 11.6049 7.21416 11.3885 7.7366C11.1721 8.25905 11.1155 8.83393 11.2258 9.38855C11.3361 9.94317 11.6084 10.4526 12.0083 10.8525C12.4081 11.2524 12.9176 11.5247 13.4722 11.635C14.0268 11.7453 14.6017 11.6887 15.1242 11.4723C15.6466 11.2559 16.0932 10.8895 16.4073 10.4193C16.7215 9.9491 16.8892 9.39632 16.8892 8.83083C16.887 8.07338 16.5851 7.34761 16.0493 6.8122C15.5135 6.27679 14.7875 5.97531 14.03 5.97368V5.9716Z" fill="#757575"/>
<path d="M17.9746 16.4717L16.733 16.3414L15.5412 17.5762L14.5451 17.0898V22.916L17.9746 26.5781V16.4717Z" fill="#757575"/>
<path d="M10.0247 16.4717L11.267 16.3414L12.4582 17.5762L13.4542 17.0898V22.916L10.0247 26.5781V16.4717Z" fill="#757575"/>
<path d="M17.9746 16.4717L16.733 16.3414L15.5412 17.5762L14.5451 17.0898V22.916L17.9746 26.5781V16.4717Z" fill="#757575"/>
<path d="M10.0247 16.4717L11.267 16.3414L12.4582 17.5762L13.4542 17.0898V22.916L10.0247 26.5781V16.4717Z" fill="#757575"/>
<path d="M17.9748 16.4717L16.7332 16.3414L15.5413 17.5762L14.5453 17.0898V22.916L17.9748 26.5781V16.4717Z" fill="#B8B8B8"/>
<path d="M10.0249 16.4717L11.2672 16.3414L12.4584 17.5762L13.4544 17.0898V22.916L10.0249 26.5781V16.4717Z" fill="#B8B8B8"/>
</svg>
