<svg width="39" height="39" viewBox="0 0 39 39" fill="none" xmlns="http://www.w3.org/2000/svg">
<path d="M24.375 22.75C20.0362 22.75 11.375 24.9112 11.375 29.25V32.5H37.375V29.25C37.375 24.9112 28.7138 22.75 24.375 22.75ZM9.75 16.25V11.375H6.5V16.25H1.625V19.5H6.5V24.375H9.75V19.5H14.625V16.25M24.375 19.5C26.0989 19.5 27.7522 18.8152 28.9712 17.5962C30.1902 16.3772 30.875 14.7239 30.875 13C30.875 11.2761 30.1902 9.62279 28.9712 8.40381C27.7522 7.18482 26.0989 6.5 24.375 6.5C22.6511 6.5 20.9978 7.18482 19.7788 8.40381C18.5598 9.62279 17.875 11.2761 17.875 13C17.875 14.7239 18.5598 16.3772 19.7788 17.5962C20.9978 18.8152 22.6511 19.5 24.375 19.5Z" fill="#FABB18"/>
</svg>
