<svg width="50" height="50" viewBox="0 0 50 50" fill="none" xmlns="http://www.w3.org/2000/svg">
<g clip-path="url(#clip0_266_33)">
<path fill-rule="evenodd" clip-rule="evenodd" d="M41.5408 -1.33482e-06C42.7595 -1.33482e-06 43.7502 0.990624 43.7502 2.20937V6.25H47.7908C48.2278 6.24991 48.6551 6.37943 49.0185 6.6222C49.3819 6.86496 49.6652 7.21005 49.8324 7.61382C49.9997 8.01759 50.0435 8.46189 49.9582 8.89053C49.8729 9.31917 49.6624 9.71288 49.3533 10.0219L44.7908 14.5844C44.1246 15.2491 43.2225 15.6232 42.2814 15.625H37.6877L26.6564 26.6562C26.2121 27.0702 25.6245 27.2956 25.0173 27.2849C24.4101 27.2742 23.8308 27.0282 23.4014 26.5988C22.9719 26.1694 22.726 25.5901 22.7153 24.9829C22.7045 24.3757 22.9299 23.788 23.3439 23.3437L34.3752 12.3125V7.71875C34.3752 6.77812 34.7502 5.875 35.4158 5.20625L39.9783 0.643749C40.1828 0.437627 40.4262 0.274274 40.6945 0.163214C40.9628 0.0521535 41.2505 -0.00439213 41.5408 -0.00312633M7.81267 25C7.81234 22.4517 8.37867 19.9352 9.47067 17.6327C10.5627 15.3302 12.153 13.2993 14.1265 11.6871C16.1 10.0749 18.4073 8.92173 20.8814 8.31106C23.3555 7.70039 25.9344 7.64751 28.4314 8.15625C29.0374 8.27188 29.6646 8.1439 30.1769 7.80009C30.6891 7.45627 31.0452 6.92433 31.1677 6.31969C31.2903 5.71504 31.1695 5.08645 30.8316 4.57028C30.4937 4.05411 29.9659 3.692 29.3627 3.5625C24.7554 2.62579 19.9689 3.1984 15.7126 5.19548C11.4563 7.19256 7.95663 10.5078 5.73234 14.6499C3.50804 18.792 2.67746 23.5406 3.36368 28.1918C4.0499 32.8429 6.21641 37.1493 9.54212 40.4726C12.8678 43.7958 17.1758 45.9592 21.8275 46.642C26.4792 47.3248 31.2271 46.4908 35.3676 44.2635C39.508 42.0361 42.8207 38.5341 44.8147 34.2763C46.8086 30.0185 47.3778 25.2316 46.4377 20.625C46.3138 20.0158 45.9529 19.4808 45.4346 19.1377C44.9162 18.7946 44.2828 18.6714 43.6736 18.7953C43.0644 18.9192 42.5294 19.28 42.1863 19.7984C41.8432 20.3168 41.72 20.9502 41.8439 21.5594C42.071 22.6698 42.1856 23.8167 42.1877 25C42.1877 29.5584 40.3769 33.9301 37.1536 37.1534C33.9303 40.3767 29.5586 42.1875 25.0002 42.1875C20.4418 42.1875 16.0701 40.3767 12.8468 37.1534C9.62349 33.9301 7.81267 29.5584 7.81267 25ZM24.5752 17.2C25.1959 17.1668 25.7781 16.8885 26.1936 16.4261C26.6091 15.9637 26.8239 15.3551 26.7908 14.7344C26.7576 14.1136 26.4792 13.5314 26.0169 13.1159C25.5545 12.7004 24.9459 12.4856 24.3252 12.5187C21.9249 12.6481 19.6129 13.4668 17.6661 14.8766C15.7193 16.2865 14.2202 18.2278 13.3486 20.4679C12.477 22.708 12.2697 25.152 12.7517 27.5069C13.2336 29.8618 14.3843 32.0278 16.0659 33.7454C17.7475 35.463 19.8886 36.6593 22.2328 37.191C24.577 37.7227 27.0247 37.5672 29.2828 36.7433C31.5409 35.9193 33.5135 34.4617 34.9643 32.5452C36.4151 30.6286 37.2825 28.3345 37.4627 25.9375C37.5087 25.3176 37.3065 24.7047 36.9007 24.2338C36.4948 23.7629 35.9186 23.4726 35.2986 23.4266C34.6787 23.3806 34.0658 23.5827 33.5949 23.9886C33.1241 24.3944 32.8337 24.9707 32.7877 25.5906C32.6737 27.0879 32.1306 28.5207 31.2234 29.7173C30.3162 30.914 29.0834 31.8238 27.6725 32.3379C26.2616 32.8521 24.7324 32.9487 23.2681 32.6162C21.8037 32.2838 20.4661 31.5363 19.4156 30.4634C18.365 29.3904 17.6459 28.0374 17.3443 26.5664C17.0428 25.0953 17.1716 23.5685 17.7153 22.1688C18.2591 20.769 19.1947 19.5556 20.4102 18.6739C21.6257 17.7921 23.0695 17.2793 24.5689 17.1969" fill="#202020"/>
<path fill-rule="evenodd" clip-rule="evenodd" d="M24.5773 17.1846C25.1981 17.1514 25.7803 16.873 26.1958 16.4106C26.6113 15.9483 26.8261 15.3397 26.793 14.719C26.7598 14.0982 26.4814 13.516 26.019 13.1005C25.5566 12.685 24.9481 12.4702 24.3273 12.5033C21.9271 12.6327 19.6151 13.4513 17.6683 14.8612C15.7214 16.2711 14.2224 18.2124 13.3508 20.4525C12.4791 22.6926 12.2719 25.1365 12.7538 27.4915C13.2358 29.8464 14.3865 32.0124 16.0681 33.73C17.7496 35.4475 19.8908 36.6439 22.235 37.1756C24.5791 37.7073 27.0269 37.5518 29.285 36.7278C31.5431 35.9038 33.5157 34.4463 34.9665 32.5297C36.4172 30.6132 37.2847 28.319 37.4648 25.9221C37.5108 25.3021 37.3087 24.6893 36.9028 24.2184C36.497 23.7475 35.9207 23.4571 35.3008 23.4112C34.6808 23.3652 34.068 23.5673 33.5971 23.9732C33.1262 24.379 32.8358 24.9553 32.7898 25.5752C32.6759 27.0725 32.1328 28.5053 31.2256 29.7019C30.3184 30.8986 29.0856 31.8084 27.6747 32.3225C26.2638 32.8367 24.7346 32.9333 23.2702 32.6008C21.8059 32.2684 20.4683 31.5209 19.4177 30.448C18.3671 29.375 17.648 28.022 17.3465 26.551C17.045 25.0799 17.1738 23.5531 17.7175 22.1534C18.2613 20.7536 19.1969 19.5402 20.4124 18.6584C21.6278 17.7767 23.0717 17.2639 24.5711 17.1815" fill="#9E2424"/>
</g>
<defs>
<clipPath id="clip0_266_33">
<rect width="50" height="50" fill="white"/>
</clipPath>
</defs>
</svg>
