<svg width="35" height="35" viewBox="0 0 35 35" fill="none" xmlns="http://www.w3.org/2000/svg">
<path fill-rule="evenodd" clip-rule="evenodd" d="M8.42221 4.72286C7.16296 5.98067 7.16296 8.00778 7.16296 12.0591V23.5198C7.16296 27.5711 7.16296 29.5983 8.42221 30.8561C9.68001 32.1153 11.7071 32.1153 15.7585 32.1153H18.6236C22.675 32.1153 24.7021 32.1153 25.9599 30.8561C27.2191 29.5983 27.2191 27.5711 27.2191 23.5198V12.0591C27.2191 8.00778 27.2191 5.98067 25.9599 4.72286C24.7021 3.46362 22.675 3.46362 18.6236 3.46362H15.7585C11.7071 3.46362 9.68001 3.46362 8.42221 4.72286ZM11.8189 24.9524C11.8189 24.6674 11.9321 24.3941 12.1336 24.1926C12.3351 23.9911 12.6083 23.8779 12.8933 23.8779H17.1911C17.476 23.8779 17.7493 23.9911 17.9508 24.1926C18.1523 24.3941 18.2655 24.6674 18.2655 24.9524C18.2655 25.2373 18.1523 25.5106 17.9508 25.7121C17.7493 25.9136 17.476 26.0268 17.1911 26.0268H12.8933C12.6083 26.0268 12.3351 25.9136 12.1336 25.7121C11.9321 25.5106 11.8189 25.2373 11.8189 24.9524ZM12.8933 18.1476C12.6083 18.1476 12.3351 18.2608 12.1336 18.4623C11.9321 18.6638 11.8189 18.9371 11.8189 19.222C11.8189 19.507 11.9321 19.7803 12.1336 19.9818C12.3351 20.1833 12.6083 20.2965 12.8933 20.2965H21.4888C21.7738 20.2965 22.047 20.1833 22.2485 19.9818C22.45 19.7803 22.5632 19.507 22.5632 19.222C22.5632 18.9371 22.45 18.6638 22.2485 18.4623C22.047 18.2608 21.7738 18.1476 21.4888 18.1476H12.8933ZM11.8189 13.4917C11.8189 13.2068 11.9321 12.9335 12.1336 12.732C12.3351 12.5305 12.6083 12.4173 12.8933 12.4173H21.4888C21.7738 12.4173 22.047 12.5305 22.2485 12.732C22.45 12.9335 22.5632 13.2068 22.5632 13.4917C22.5632 13.7767 22.45 14.05 22.2485 14.2515C22.047 14.4529 21.7738 14.5661 21.4888 14.5661H12.8933C12.6083 14.5661 12.3351 14.4529 12.1336 14.2515C11.9321 14.05 11.8189 13.7767 11.8189 13.4917Z" fill="black"/>
<path d="M7.49952 6.41187C7.16286 7.67684 7.16286 9.44751 7.16286 12.0591V23.5198C7.16286 26.1314 7.16286 27.9006 7.49952 29.167L7.16286 29.1412C5.76609 29.0037 4.82632 28.6928 4.12435 27.9909C2.86511 26.7331 2.86511 24.706 2.86511 20.6546V14.9243C2.86511 10.8715 2.86511 8.84583 4.12435 7.58802C4.82632 6.88605 5.76609 6.57518 7.16286 6.43765L7.49952 6.41187ZM26.8824 29.167C27.219 27.9006 27.219 26.1299 27.219 23.5198V12.0591C27.219 9.44751 27.219 7.67684 26.8824 6.41187L27.219 6.43765C28.6158 6.57518 29.5556 6.88605 30.2576 7.58802C31.5168 8.84583 31.5168 10.8701 31.5168 14.9228V20.6532C31.5168 24.7074 31.5168 26.7316 30.2576 27.9909C29.5556 28.6928 28.6158 29.0037 27.219 29.1412L26.8824 29.167Z" fill="#FABB18"/>
</svg>
