<svg width="24" height="24" viewBox="0 0 24 24" fill="none" xmlns="http://www.w3.org/2000/svg">
<path fill-rule="evenodd" clip-rule="evenodd" d="M5.879 2.879C5 3.757 5 5.172 5 8V16C5 18.828 5 20.243 5.879 21.121C6.757 22 8.172 22 11 22H13C15.828 22 17.243 22 18.121 21.121C19 20.243 19 18.828 19 16V8C19 5.172 19 3.757 18.121 2.879C17.243 2 15.828 2 13 2H11C8.172 2 6.757 2 5.879 2.879ZM8.25 17C8.25 16.8011 8.32902 16.6103 8.46967 16.4697C8.61032 16.329 8.80109 16.25 9 16.25H12C12.1989 16.25 12.3897 16.329 12.5303 16.4697C12.671 16.6103 12.75 16.8011 12.75 17C12.75 17.1989 12.671 17.3897 12.5303 17.5303C12.3897 17.671 12.1989 17.75 12 17.75H9C8.80109 17.75 8.61032 17.671 8.46967 17.5303C8.32902 17.3897 8.25 17.1989 8.25 17ZM9 12.25C8.80109 12.25 8.61032 12.329 8.46967 12.4697C8.32902 12.6103 8.25 12.8011 8.25 13C8.25 13.1989 8.32902 13.3897 8.46967 13.5303C8.61032 13.671 8.80109 13.75 9 13.75H15C15.1989 13.75 15.3897 13.671 15.5303 13.5303C15.671 13.3897 15.75 13.1989 15.75 13C15.75 12.8011 15.671 12.6103 15.5303 12.4697C15.3897 12.329 15.1989 12.25 15 12.25H9ZM8.25 9C8.25 8.80109 8.32902 8.61032 8.46967 8.46967C8.61032 8.32902 8.80109 8.25 9 8.25H15C15.1989 8.25 15.3897 8.32902 15.5303 8.46967C15.671 8.61032 15.75 8.80109 15.75 9C15.75 9.19891 15.671 9.38968 15.5303 9.53033C15.3897 9.67098 15.1989 9.75 15 9.75H9C8.80109 9.75 8.61032 9.67098 8.46967 9.53033C8.32902 9.38968 8.25 9.19891 8.25 9Z" fill="#757575"/>
<path opacity="0.5" d="M5.235 4.058C5 4.941 5 6.177 5 8V16C5 17.823 5 19.058 5.235 19.942L5 19.924C4.025 19.828 3.369 19.611 2.879 19.121C2 18.243 2 16.828 2 14V10C2 7.171 2 5.757 2.879 4.879C3.369 4.389 4.025 4.172 5 4.076L5.235 4.058ZM18.765 19.942C19 19.058 19 17.822 19 16V8C19 6.177 19 4.941 18.765 4.058L19 4.076C19.975 4.172 20.631 4.389 21.121 4.879C22 5.757 22 7.17 22 9.999V13.999C22 16.829 22 18.242 21.121 19.121C20.631 19.611 19.975 19.828 19 19.924L18.765 19.942Z" fill="#757575"/>
</svg>
